<?xml version="1.0" standalone="no"?>
<!DOCTYPE svg PUBLIC "-//W3C//DTD SVG 20010904//EN"
 "http://www.w3.org/TR/2001/REC-SVG-20010904/DTD/svg10.dtd">
<svg version="1.0" xmlns="http://www.w3.org/2000/svg"
 width="811.000000pt" height="811.000000pt" viewBox="0 0 811.000000 811.000000"
 preserveAspectRatio="xMidYMid meet">
<metadata>
Created by potrace 1.11, written by Peter Selinger 2001-2013
</metadata>
<g transform="translate(0.000000,811.000000) scale(0.100000,-0.100000)"
fill="#000000" stroke="none">
<path d="M7092 7962 c-20 -3 -20 -5 -7 -18 32 -33 15 -39 -87 -34 -27 1 -48
-2 -48 -7 0 -19 -71 -52 -148 -69 -49 -10 -97 -27 -115 -41 -18 -12 -52 -32
-76 -43 -56 -26 -127 -100 -153 -159 -11 -26 -23 -53 -28 -61 -4 -9 -11 -31
-15 -50 -4 -19 -13 -44 -20 -55 -6 -11 -15 -33 -18 -50 -16 -84 -30 -135 -62
-237 -19 -61 -35 -122 -35 -135 0 -12 -4 -23 -10 -23 -18 0 -10 -19 11 -25 19
-6 21 -12 16 -59 -3 -28 -9 -60 -13 -70 -5 -13 -4 -17 4 -12 8 5 11 -27 11
-121 0 -159 20 -236 84 -314 23 -28 52 -66 64 -84 12 -17 46 -49 77 -69 31
-20 68 -53 84 -72 30 -38 42 -43 42 -16 0 10 5 23 12 30 8 8 8 15 -1 26 -18
22 -5 36 32 36 57 0 77 -11 104 -59 15 -25 38 -57 51 -71 24 -25 72 -114 72
-134 0 -6 9 -17 20 -24 15 -9 20 -23 20 -56 0 -40 3 -46 38 -67 20 -13 42 -30
49 -39 17 -21 16 -50 -1 -50 -8 0 -16 -4 -18 -10 -1 -5 -12 -11 -23 -13 -11
-1 -26 -6 -32 -10 -7 -5 -18 -5 -23 -2 -6 3 -13 0 -16 -8 -3 -8 -23 -17 -45
-21 -22 -3 -67 -17 -102 -30 -34 -13 -96 -34 -137 -46 -41 -13 -121 -38 -176
-56 -56 -19 -111 -34 -122 -34 -24 0 -74 -20 -83 -34 -4 -5 -14 -6 -24 -3 -20
8 -70 -16 -78 -37 -14 -35 10 -30 213 44 63 23 129 42 145 42 41 -1 61 -31
100 -148 57 -174 135 -339 135 -289 0 30 50 47 85 29 24 -12 26 -12 20 5 -7
23 13 39 21 17 3 -9 10 -13 15 -10 5 3 1 18 -10 33 -43 60 -65 167 -38 189 24
19 223 86 264 88 36 2 47 -2 67 -27 39 -46 49 -89 33 -138 -12 -32 -12 -43 -2
-51 7 -6 20 -32 30 -58 27 -72 53 -109 93 -133 20 -12 48 -32 62 -45 29 -26
128 -72 213 -99 48 -15 57 -21 57 -41 0 -34 -25 -31 -122 14 -46 22 -98 45
-115 53 -18 8 -33 18 -33 22 0 5 -4 6 -9 2 -5 -3 -12 -2 -15 3 -6 11 -64 3
-72 -9 -3 -5 1 -9 8 -9 8 0 6 -5 -4 -11 -41 -23 -3 -159 52 -189 25 -13 89
-13 129 1 26 9 35 8 50 -5 16 -15 35 -16 131 -12 61 3 116 8 121 11 13 8 49
17 80 20 14 1 30 5 36 8 19 12 22 -5 6 -29 -9 -14 -25 -24 -39 -24 -13 0 -24
-3 -24 -8 0 -4 -16 -7 -35 -6 -54 3 -62 -18 -20 -52 19 -15 35 -37 35 -48 1
-19 1 -19 11 -3 5 9 7 22 4 27 -3 6 1 10 9 10 9 0 16 6 16 14 0 12 47 26 91
26 21 0 33 -29 18 -46 -8 -10 -7 -18 3 -33 13 -18 17 -19 34 -7 11 8 31 16 44
18 14 2 24 9 23 16 -2 6 4 12 12 12 13 0 15 26 15 175 0 96 -2 175 -4 175 -3
0 -14 -19 -26 -43 -20 -39 -25 -43 -53 -40 -98 11 -118 16 -132 29 -8 9 -15
11 -15 5 0 -6 -7 -8 -16 -4 -13 5 -13 7 -2 14 10 7 9 9 -5 9 -10 0 -20 6 -22
13 -4 8 -26 12 -63 12 -44 0 -71 7 -116 30 -32 16 -61 35 -63 42 -3 7 -9 13
-15 13 -11 0 -25 14 -57 60 -14 19 -33 41 -43 48 -10 7 -18 19 -18 26 0 7 -8
21 -17 32 -10 10 -19 35 -19 54 -1 19 -6 36 -13 38 -17 6 -13 22 7 23 11 1 8
4 -8 9 -23 7 -23 8 -6 15 11 5 26 4 36 -3 10 -6 29 -9 44 -8 14 2 31 -3 37
-10 6 -8 18 -14 25 -14 8 0 14 -6 14 -13 0 -14 61 -37 99 -37 12 0 21 6 21 15
0 8 -5 15 -10 15 -6 0 -15 12 -20 26 -9 22 -7 29 11 45 19 16 39 19 129 19 97
0 109 -2 126 -21 14 -16 15 -23 7 -26 -7 -3 -13 -17 -13 -33 0 -45 -24 -61
-86 -58 -30 2 -54 8 -54 13 0 6 -5 3 -10 -6 -13 -22 -1 -59 16 -52 8 3 14 0
14 -6 0 -15 79 -34 121 -28 40 5 69 29 94 77 15 30 20 32 61 28 l44 -3 0 524
c0 448 -2 522 -14 506 -12 -17 -15 -18 -30 -3 -8 9 -20 18 -24 20 -5 1 -27 30
-50 63 -22 33 -51 69 -64 81 -45 39 -93 107 -93 132 -1 13 -9 30 -18 37 -26
18 -22 55 6 56 12 1 27 2 32 3 13 2 85 25 110 36 35 15 82 19 113 10 l30 -8 1
342 1 342 -24 23 c-13 13 -30 37 -37 54 -7 18 -23 41 -34 52 -12 11 -25 27
-29 35 -3 8 -15 29 -26 45 -11 17 -28 46 -39 65 -18 31 -170 193 -214 228 -25
19 -65 32 -102 32 -19 0 -44 4 -57 9 -15 6 -42 5 -70 -1 -38 -9 -53 -8 -81 5
-45 22 -59 21 -87 -3 -26 -23 -80 -26 -113 -8 -37 21 -81 33 -105 30z m646
-808 c17 -5 20 -10 12 -19 -13 -16 -1 -25 42 -34 16 -3 28 -10 28 -15 -1 -5 4
-12 11 -17 8 -4 11 -9 9 -11 -3 -2 -30 -16 -61 -32 -33 -17 -65 -43 -80 -65
-13 -20 -33 -45 -44 -57 -50 -53 -75 -85 -75 -98 0 -7 -7 -19 -15 -26 -13 -11
-11 -16 15 -41 16 -16 30 -32 30 -35 0 -3 13 -23 28 -43 38 -48 82 -129 82
-150 0 -9 9 -24 20 -34 11 -9 20 -15 20 -12 0 2 11 -7 25 -19 l26 -24 -22 -36
c-21 -36 -71 -66 -110 -66 -11 0 -39 -18 -64 -41 -37 -34 -47 -39 -64 -30 -28
16 -31 14 -31 -18 0 -42 43 -81 91 -81 32 0 42 6 65 35 20 27 34 35 58 35 18
0 37 5 43 11 8 8 19 7 40 -3 22 -10 29 -21 31 -51 2 -28 0 -37 -12 -37 -9 0
-16 -6 -16 -14 0 -8 -15 -19 -32 -25 -18 -6 -49 -24 -68 -41 -19 -16 -39 -30
-43 -30 -5 0 -6 -4 -3 -9 3 -4 -7 -19 -22 -33 -31 -28 -82 -89 -82 -98 0 -11
55 -37 91 -44 45 -8 70 -33 48 -47 -8 -5 -9 -9 -4 -9 6 0 15 -10 20 -22 11
-26 44 -28 124 -10 36 8 51 7 78 -6 19 -9 32 -21 29 -28 -2 -6 0 -16 6 -22 18
-18 -66 -89 -120 -101 -98 -22 -119 -25 -180 -24 -74 1 -142 37 -142 76 0 13
-5 28 -11 34 -7 7 -13 27 -14 45 -2 18 -8 34 -14 36 -6 2 -28 19 -48 38 -22
21 -46 34 -62 34 -30 0 -37 5 -70 42 l-24 27 27 12 c16 8 26 20 26 33 0 31
-29 69 -47 61 -21 -7 -83 16 -83 32 0 7 -18 17 -39 23 -21 5 -42 17 -45 25 -3
8 -14 15 -25 15 -10 0 -21 7 -25 15 -3 8 -11 15 -18 15 -7 0 -32 7 -55 16 -29
11 -43 23 -43 35 0 12 -5 16 -14 13 -9 -3 -17 3 -21 15 -3 12 -10 21 -14 21
-4 0 -8 19 -7 43 0 23 -8 60 -18 81 -10 22 -20 58 -21 81 -2 22 -12 56 -23 75
-37 63 -29 116 21 145 46 27 86 65 104 100 19 37 61 75 83 75 9 0 21 5 27 11
22 22 148 70 198 76 74 8 142 52 215 137 35 41 67 73 72 70 4 -3 8 0 8 6 0 6
3 9 8 7 4 -3 16 -1 27 4 24 9 111 11 143 3z m249 -61 c7 -10 18 -27 23 -38 6
-11 21 -38 35 -60 28 -45 42 -74 51 -110 9 -37 -8 -30 -36 15 -14 22 -28 40
-31 40 -9 0 -29 58 -29 84 0 11 -12 30 -27 41 -15 13 -23 27 -19 33 10 16 16
15 33 -5z m-51 -181 c1 -25 -9 -35 -78 -81 -94 -63 -114 -68 -111 -28 1 16 7
35 14 43 25 31 105 77 132 76 15 0 27 4 27 9 0 23 15 6 16 -19z m-80 -210 c-4
-3 -14 2 -24 12 -16 18 -16 18 6 6 13 -6 21 -14 18 -18z m-421 -991 c16 -7 14
-9 -15 -14 -36 -8 -46 -4 -35 12 7 12 21 13 50 2z m-300 -17 c14 -9 25 -23 25
-30 0 -8 5 -14 10 -14 6 0 10 -6 10 -12 0 -7 9 -24 20 -38 11 -14 20 -37 20
-52 0 -25 -3 -28 -34 -28 -45 0 -74 -12 -111 -44 -29 -25 -136 -66 -173 -66
-10 0 -29 11 -41 24 l-23 24 32 68 c67 140 190 217 265 168z m958 -892 c-6
-14 -25 -12 -30 4 -2 5 5 10 16 10 11 0 17 -5 14 -14z m-29 -180 c-18 -4 -46
17 -38 29 3 5 16 1 29 -8 17 -13 19 -19 9 -21z"/>
<path d="M7235 6775 c-124 -32 -235 -99 -235 -141 0 -13 3 -14 15 -4 8 7 15
10 15 7 0 -4 19 1 43 9 55 21 146 43 174 44 12 0 35 -11 50 -25 l28 -26 -28
-22 c-15 -12 -65 -37 -110 -57 -102 -44 -127 -60 -127 -81 0 -10 13 -22 30
-27 23 -9 37 -7 69 9 22 10 45 19 51 19 5 0 10 9 10 20 0 25 -4 25 55 -3 41
-20 53 -22 80 -13 17 6 40 19 49 29 10 9 21 17 26 17 13 0 17 32 9 57 -8 23 6
61 47 121 25 38 22 68 -9 76 -39 10 -191 5 -242 -9z"/>
<path d="M7780 6161 c13 -25 33 -28 28 -4 -2 10 -11 19 -21 21 -16 3 -17 1 -7
-17z"/>
<path d="M7611 5728 c-50 -25 -48 -42 6 -46 28 -2 46 3 63 18 25 22 25 22 -6
38 -16 9 -30 7 -63 -10z"/>
<path d="M7505 5700 c3 -5 10 -10 16 -10 5 0 9 5 9 10 0 6 -7 10 -16 10 -8 0
-12 -4 -9 -10z"/>
<path d="M3739 6439 c26 -25 63 -19 37 6 -8 8 -25 15 -37 15 l-23 0 23 -21z"/>
<path d="M3789 6447 c15 -19 8 -47 -12 -47 -7 0 -33 9 -57 21 -37 18 -60 21
-161 20 -126 -2 -150 -6 -143 -24 3 -8 -21 -19 -63 -31 -76 -22 -80 -23 -143
-56 -42 -21 -190 -116 -235 -150 -90 -68 -256 -299 -309 -430 -26 -66 -44
-101 -66 -135 -11 -16 -25 -41 -31 -55 -7 -14 -23 -47 -35 -74 -13 -27 -21
-53 -18 -58 3 -5 -1 -17 -9 -26 -7 -9 -17 -25 -20 -34 -5 -13 -18 -18 -49 -18
-24 0 -76 -9 -117 -20 -41 -11 -85 -20 -97 -20 -12 0 -27 -7 -34 -15 -13 -16
-174 -95 -194 -95 -16 0 -147 -80 -195 -119 -23 -19 -65 -68 -93 -108 -28 -40
-54 -73 -59 -73 -5 0 -9 -6 -9 -14 0 -21 -27 -29 -115 -32 -88 -3 -234 -23
-250 -34 -5 -4 -22 -7 -37 -6 -23 1 -28 -3 -34 -28 -9 -41 52 -193 81 -200 11
-3 22 -1 23 4 2 6 17 10 33 10 40 0 95 30 145 79 23 22 45 37 48 34 3 -4 6 3
6 15 0 12 5 22 11 22 16 0 6 -89 -21 -190 -29 -107 -31 -271 -6 -375 18 -71
92 -235 108 -235 4 0 8 -9 8 -20 0 -11 3 -20 8 -20 4 0 18 -17 32 -38 14 -20
27 -39 30 -42 3 -3 17 -22 32 -42 39 -52 127 -100 175 -96 35 3 38 5 35 29 -4
37 33 72 103 98 31 12 61 21 68 21 7 0 31 -16 53 -36 21 -20 58 -43 82 -51 23
-8 54 -29 70 -45 72 -81 136 -139 151 -136 9 2 17 15 19 29 2 21 -8 37 -50 75
-29 27 -90 87 -135 134 -116 118 -114 134 23 204 52 27 83 36 118 36 l49 0 -6
34 c-5 30 0 41 34 79 27 32 49 47 75 51 50 10 84 27 84 43 0 7 5 13 11 13 6 0
9 18 7 48 -1 26 1 53 5 60 5 6 5 12 1 12 -4 0 0 6 10 13 15 11 16 18 5 59 -12
45 -12 49 11 73 24 25 90 36 90 15 0 -5 7 -10 15 -10 8 0 17 -11 21 -25 3 -14
10 -23 14 -20 4 3 11 -11 14 -30 4 -19 12 -35 17 -35 6 0 9 -17 8 -39 -3 -41
15 -75 37 -67 18 7 31 -12 86 -127 37 -76 48 -109 44 -130 -7 -37 -27 -56 -66
-64 -20 -4 -28 -9 -22 -15 14 -14 73 7 95 32 16 19 44 29 33 12 -3 -5 2 -21
10 -36 7 -16 14 -35 14 -42 0 -16 -61 -106 -103 -151 -27 -29 -29 -35 -19 -58
10 -23 15 -24 57 -18 38 5 54 1 96 -21 37 -21 61 -27 94 -25 42 3 48 0 96 -48
48 -48 51 -53 35 -68 -9 -9 -16 -14 -16 -12 0 3 -14 -8 -31 -24 -36 -33 -97
-63 -154 -73 -22 -4 -45 -12 -51 -17 -6 -5 -39 -10 -73 -12 -60 -2 -76 -9 -46
-21 8 -3 12 -12 9 -21 -4 -8 -1 -15 6 -15 6 0 10 -6 8 -12 -3 -7 -9 -13 -14
-13 -5 0 -15 -4 -22 -9 -16 -10 -27 0 -37 32 -4 14 -2 22 5 22 6 0 8 5 5 11
-4 6 -13 8 -20 5 -16 -6 -38 17 -27 29 4 4 -9 5 -28 3 -19 -3 -45 -2 -57 3
-23 8 -116 18 -214 23 -57 2 -107 25 -144 66 -23 26 -27 25 -63 -8 -26 -25
-44 -30 -129 -41 -106 -14 -116 -18 -152 -71 -48 -70 -72 -82 -186 -90 -108
-8 -254 -45 -262 -66 -2 -7 9 -52 25 -101 16 -48 32 -110 35 -138 9 -83 70
-174 152 -226 65 -41 70 -64 19 -85 -21 -9 -43 -22 -51 -30 -19 -18 -190 -140
-267 -188 -32 -21 -73 -51 -90 -67 -22 -22 -39 -29 -61 -27 -17 1 -44 -3 -60
-9 -17 -6 -55 -14 -85 -16 -30 -3 -80 -13 -110 -23 -55 -17 -120 -66 -120 -90
0 -7 -7 -17 -17 -22 -9 -5 -17 -22 -19 -38 -4 -45 -10 -77 -18 -102 -5 -15 -2
-31 8 -47 8 -13 15 -36 15 -52 -1 -48 12 -83 43 -114 38 -38 32 -69 -23 -119
-30 -26 -60 -40 -122 -56 -89 -24 -265 -85 -311 -110 -16 -8 -49 -17 -73 -21
-23 -3 -43 -10 -43 -16 0 -5 -14 -7 -32 -3 -20 3 -28 3 -20 -3 9 -5 0 -10 -29
-15 -24 -4 -49 -12 -56 -18 -10 -8 -17 -8 -25 0 -8 8 -19 7 -40 -6 -15 -9 -28
-20 -28 -24 0 -4 -4 -8 -10 -8 -5 0 -10 9 -10 19 0 25 -12 32 -30 20 -12 -7
-11 -9 5 -9 15 0 17 -2 6 -9 -11 -7 -11 -9 0 -13 17 -6 -80 -28 -120 -28 -38
0 -54 36 -57 127 -2 52 2 75 12 84 8 6 14 18 14 27 0 12 -6 10 -26 -9 l-26
-24 3 25 c2 14 0 31 -5 39 -5 8 -3 16 5 22 11 7 12 12 2 28 -8 12 -11 50 -9
105 4 84 4 85 -30 123 l-33 38 -1 -162 c0 -100 4 -163 10 -163 6 0 6 -9 1 -22
-4 -13 -6 -57 -4 -98 2 -41 4 -91 3 -110 0 -19 -3 -151 -6 -292 -5 -250 -5
-258 14 -258 11 0 66 16 123 36 57 20 154 51 214 69 140 43 243 79 256 92 6 6
2 19 -12 37 -46 58 -12 197 51 211 16 4 30 11 30 17 0 7 23 8 67 4 112 -12
124 -10 243 23 151 43 184 47 215 27 32 -21 42 -20 22 2 -8 9 -17 33 -19 52
-3 32 0 35 25 38 15 2 27 9 27 17 0 8 35 24 88 41 48 16 90 34 95 41 4 7 24
15 45 18 20 3 75 18 121 33 69 22 90 34 120 69 26 29 50 45 81 53 25 7 48 16
51 22 3 5 25 12 48 15 22 3 41 9 41 12 0 4 33 17 72 30 40 13 96 31 123 41 28
10 66 22 85 26 19 3 41 10 50 14 22 12 227 80 285 95 28 7 61 17 75 23 30 13
101 27 115 22 25 -7 51 -7 62 2 7 6 19 6 31 -1 22 -12 45 -9 64 7 8 6 49 19
92 28 43 10 80 23 83 31 3 7 12 13 19 13 16 0 163 46 209 66 17 7 42 15 57 19
15 4 29 13 31 20 3 7 18 16 34 20 15 3 36 14 45 23 34 34 48 42 67 42 30 0 74
19 88 37 9 11 33 18 73 21 60 4 61 4 98 -35 31 -32 40 -52 54 -118 9 -44 29
-134 43 -200 15 -66 28 -133 31 -150 2 -16 8 -46 13 -65 14 -54 31 -163 31
-202 0 -28 5 -37 25 -46 38 -18 59 -15 185 23 63 19 129 35 145 35 97 0 169
-56 197 -155 28 -96 48 -214 49 -290 1 -38 6 -78 11 -90 10 -21 86 -75 107
-75 7 0 9 -5 5 -11 -4 -8 0 -9 15 -4 17 5 20 3 14 -11 -5 -14 -2 -16 16 -11
15 4 26 -1 34 -14 16 -25 26 -24 20 2 -4 12 0 25 8 30 28 17 46 9 62 -28 11
-27 14 -30 11 -11 -5 21 0 30 20 43 24 16 66 13 66 -4 0 -4 7 -16 16 -27 15
-18 15 -18 5 3 -17 35 -13 52 15 59 18 5 30 1 45 -15 22 -24 38 -29 19 -6 -17
20 10 31 39 16 11 -7 32 -9 45 -5 13 3 33 1 43 -4 15 -8 22 -6 32 10 9 15 20
19 42 16 25 -4 28 -2 23 14 -6 21 24 38 35 19 4 -6 15 -9 24 -5 10 3 25 0 34
-7 15 -12 16 -12 11 3 -4 10 -1 19 10 23 9 3 18 2 20 -3 1 -5 9 -18 17 -28 12
-15 14 -16 15 -4 0 9 -5 21 -12 28 -9 9 -7 13 6 18 11 4 22 0 30 -11 12 -17
13 -16 12 6 -1 31 41 40 61 13 12 -17 13 -16 13 4 0 23 30 44 58 40 11 -2 17
4 17 16 0 26 21 31 42 10 17 -17 18 -17 21 9 2 16 9 27 18 27 20 0 44 -24 44
-44 0 -9 8 -16 18 -16 13 0 14 2 4 9 -8 5 -12 17 -10 27 4 25 68 34 68 10 0
-9 5 -16 10 -16 6 0 10 -11 10 -24 0 -28 -43 -44 -66 -25 -12 10 -13 9 -9 -4
4 -10 -1 -18 -16 -22 -18 -6 -28 -2 -44 19 -11 14 -24 26 -28 26 -13 0 -7 -28
8 -34 8 -3 15 -12 15 -21 0 -24 -45 -19 -59 8 l-12 22 5 -23 c6 -30 -21 -55
-52 -49 -15 3 -32 -1 -40 -10 -8 -8 -26 -13 -39 -10 -12 2 -23 1 -23 -2 0 -10
-70 -34 -77 -27 -3 3 -11 -2 -18 -10 -10 -15 -14 -13 -34 12 l-23 29 7 -32 c5
-26 3 -33 -9 -33 -8 0 -18 5 -21 11 -5 6 -11 4 -19 -7 -10 -13 -21 -15 -44
-11 -17 4 -34 2 -37 -3 -3 -5 -18 -5 -33 0 -39 11 -120 6 -134 -8 -7 -7 -22
-12 -35 -12 -12 0 -38 -9 -58 -20 -20 -11 -44 -20 -55 -20 -10 0 -23 -6 -27
-14 -4 -7 -15 -16 -23 -19 -11 -4 -9 -6 5 -6 27 -1 94 -72 130 -136 16 -27 32
-53 37 -56 5 -3 8 -12 7 -20 -4 -26 19 -64 60 -102 23 -20 44 -37 49 -37 11 0
49 -79 62 -129 13 -49 5 -154 -16 -216 -13 -38 -12 -42 14 -79 57 -81 80 -122
81 -138 1 -17 72 -18 1341 -18 l1340 0 0 29 c0 16 -7 64 -15 107 -13 71 -19
83 -62 127 -27 27 -77 70 -113 95 -36 26 -67 49 -70 53 -3 3 -15 11 -27 18
-34 18 -28 39 15 50 20 6 63 17 95 26 32 9 60 22 63 29 3 8 -5 47 -17 88 -12
41 -22 103 -23 143 0 39 -5 73 -9 76 -10 7 41 89 54 89 5 0 9 9 9 20 0 11 4
20 9 20 13 0 81 73 81 87 0 7 -9 21 -20 30 -12 11 -20 31 -21 53 l-1 35 -11
-28 c-11 -28 -27 -37 -27 -14 1 6 5 31 9 55 6 28 5 42 -2 42 -7 0 -7 4 1 12 7
7 12 18 12 26 0 26 -21 0 -47 -58 -32 -72 -49 -81 -68 -37 l-13 32 -7 -28 c-4
-16 -14 -27 -25 -27 -32 0 -50 34 -58 111 -4 41 -11 73 -17 72 -5 -1 -14 -21
-20 -45 -10 -43 -28 -56 -53 -39 -8 4 -17 38 -21 77 -7 63 -4 78 26 164 18 52
39 106 47 120 7 14 19 43 26 65 7 22 25 65 40 97 16 31 31 67 35 80 12 39 195
402 213 421 23 26 76 47 101 40 15 -4 21 -1 21 10 0 9 -4 19 -10 22 -11 7 -14
64 -4 89 3 9 10 13 15 10 5 -3 6 2 3 10 -3 9 -1 16 5 16 6 0 11 16 11 35 0 30
-3 35 -24 35 -14 0 -28 5 -32 11 -4 7 -1 10 7 7 33 -12 49 11 49 69 0 46 -2
54 -14 44 -10 -8 -12 -21 -6 -46 4 -19 7 -36 6 -36 0 -1 -13 -3 -28 -5 -25 -2
-28 0 -28 26 0 15 6 30 13 33 16 6 14 67 -3 77 -28 17 -63 5 -79 -27 -11 -22
-22 -31 -36 -29 -11 2 -14 1 -7 -1 22 -8 13 -26 -10 -19 -13 3 -26 6 -30 6 -5
0 -8 6 -8 14 0 7 -7 19 -15 26 -9 7 -14 19 -11 26 3 8 0 11 -9 8 -16 -6 -107
39 -143 70 -12 11 -30 21 -39 22 -9 2 -40 27 -67 57 -55 59 -176 151 -242 185
-23 12 -54 32 -70 45 -16 14 -101 72 -189 130 -88 58 -167 112 -175 120 -8 9
-28 21 -45 28 -16 8 -32 16 -35 20 -3 3 -31 18 -62 32 -31 15 -60 32 -63 37
-25 41 -215 62 -327 36 -99 -23 -387 -58 -422 -52 -37 7 -368 9 -411 3 -16 -2
-22 -2 -12 0 27 7 20 28 -20 59 -21 16 -49 39 -63 51 -14 13 -28 23 -32 23 -4
0 -38 31 -75 70 -68 70 -183 139 -306 185 -26 10 -56 29 -66 42 -22 27 -31 29
-31 8 0 -12 -47 -45 -64 -45 -3 0 -10 17 -16 38 -9 29 -8 49 5 97 20 74 31
332 18 428 l-10 67 36 0 c20 0 46 3 58 6 29 8 67 86 59 119 -3 13 -7 56 -7 96
-1 69 -20 142 -32 122 -3 -5 -2 -27 3 -49 13 -53 12 -111 0 -135 -7 -13 -8
-25 -1 -37 10 -16 10 -16 11 1 0 10 4 16 8 13 15 -9 0 -66 -21 -81 -35 -24
-107 -17 -107 10 0 7 7 26 15 41 8 16 15 36 15 44 0 9 14 21 32 28 39 14 27
34 -21 36 -27 1 -31 5 -31 28 0 15 4 30 10 33 5 3 9 16 8 28 -1 33 19 77 37
77 8 0 15 5 15 10 0 6 -3 9 -7 9 -28 -4 -54 3 -50 14 2 7 16 11 31 9 27 -4 27
-3 21 42 -12 77 39 52 54 -26 l9 -43 1 41 c1 22 -2 44 -6 48 -5 4 -8 20 -9 34
-2 65 -4 72 -28 78 -32 8 -64 43 -49 52 18 11 26 58 13 81 -8 16 -8 21 1 21 8
0 8 4 2 13 -6 6 -11 30 -11 51 -1 22 -6 42 -11 45 -5 4 -8 21 -7 39 1 18 -2
36 -7 39 -4 3 -6 11 -3 19 3 7 1 16 -5 20 -6 3 -8 12 -5 20 3 7 -3 18 -12 23
-12 7 -13 10 -3 11 7 0 11 6 7 15 -3 8 -1 15 4 15 11 0 3 28 -15 50 -6 8 -12
31 -14 50 -1 19 -9 42 -17 51 -10 12 -12 19 -4 24 7 4 3 16 -10 36 -12 16 -18
29 -13 29 4 0 -1 7 -11 15 -17 13 -18 15 -3 15 15 0 15 3 5 20 -7 11 -18 20
-23 20 -6 0 -12 10 -12 22 -1 13 -8 33 -15 46 -10 19 -10 25 2 32 13 8 13 10
0 11 -8 1 -24 1 -35 0 -16 -2 -17 0 -6 8 11 7 10 15 -10 42 -12 19 -27 37 -32
40 -5 4 -6 12 -3 18 8 12 -50 76 -87 97 -12 7 -41 22 -65 34 -30 14 -42 26
-38 36 3 8 -3 20 -14 26 -11 7 -20 18 -20 25 0 6 -9 15 -20 18 -11 3 -20 10
-20 14 0 9 -83 28 -158 36 -29 3 -68 14 -85 23 -18 10 -45 19 -61 20 -37 3
-56 19 -49 40 3 10 1 13 -4 7 -11 -14 -65 -50 -84 -57 -10 -4 -27 4 -44 19
-15 15 -44 29 -64 33 -20 4 -49 11 -66 15 -27 8 -29 7 -16 -8z m90 -26 c8 -5
9 -11 3 -15 -5 -3 -15 1 -22 9 -14 16 -3 20 19 6z m-49 -67 c0 -8 -4 -12 -10
-9 -5 3 -10 10 -10 16 0 5 5 9 10 9 6 0 10 -7 10 -16z m146 -30 c-4 -9 -9 -15
-11 -12 -3 3 -3 13 1 22 4 9 9 15 11 12 3 -3 3 -13 -1 -22z m294 -4 c0 -5 -4
-10 -10 -10 -5 0 -10 5 -10 10 0 6 5 10 10 10 6 0 10 -4 10 -10z m67 -644 c-7
-49 6 -80 18 -44 7 19 9 13 15 -32 l7 -55 3 45 3 45 6 -35 7 -35 8 48 c9 53
24 70 33 37 4 -16 8 -18 14 -8 6 9 9 4 9 -15 0 -16 6 -41 14 -55 8 -15 17 -35
20 -44 3 -10 13 -18 22 -18 9 0 22 -7 29 -17 11 -15 14 -14 33 5 22 22 42 29
42 14 0 -4 -5 -13 -12 -20 -9 -9 -9 -17 2 -36 7 -14 10 -34 7 -45 -3 -12 -1
-21 4 -21 5 0 6 -13 3 -30 -4 -18 -1 -36 6 -45 11 -13 8 -15 -18 -15 -29 0
-38 17 -19 36 12 12 8 24 -8 24 -9 0 -15 -7 -13 -16 2 -10 -3 -19 -9 -21 -8
-3 -13 5 -13 22 0 17 -5 25 -12 23 -7 -3 -22 4 -33 15 -11 10 -29 23 -40 28
-11 5 -27 13 -35 18 -8 4 -30 13 -48 19 -27 9 -34 8 -39 -5 -3 -8 0 -19 8 -24
10 -7 6 -9 -16 -8 -45 2 -57 0 -51 -9 3 -5 0 -9 -7 -10 -38 -2 -136 -29 -150
-40 -9 -8 -25 -11 -36 -7 -13 4 -25 -2 -39 -20 -11 -14 -25 -25 -31 -25 -6 0
-18 -11 -27 -25 -9 -14 -20 -22 -25 -19 -5 3 -9 1 -9 -5 0 -5 -3 -17 -7 -27
-5 -13 -3 -15 7 -9 10 6 12 4 7 -8 -5 -14 5 -52 19 -75 3 -6 82 37 89 48 3 5
15 10 26 10 11 0 17 5 14 10 -4 6 5 10 19 10 14 0 26 5 26 11 0 5 4 7 10 4 6
-3 7 1 4 9 -3 9 -1 16 5 16 6 0 11 -4 11 -10 0 -12 41 5 89 36 35 24 64 22 54
-2 -3 -8 0 -14 6 -14 7 0 14 6 17 14 4 10 14 12 41 6 19 -5 42 -6 49 -3 8 3
14 0 14 -6 0 -6 9 -11 20 -11 21 0 28 -20 8 -21 -90 -5 -264 -41 -353 -72 -56
-20 -133 -57 -176 -83 -20 -13 -40 -20 -43 -17 -3 4 -6 2 -6 -4 0 -6 -28 -23
-62 -38 -62 -26 -66 -27 -203 -20 -164 8 -292 -9 -445 -57 -96 -30 -239 -95
-317 -142 l-41 -26 -7 50 c-7 53 1 113 15 105 5 -3 11 8 15 25 4 16 11 30 16
30 5 0 9 7 9 15 0 8 5 15 10 15 6 0 10 8 11 18 0 15 1 15 8 -2 7 -18 8 -18 24
5 9 13 17 32 17 42 0 10 4 16 9 12 6 -3 18 17 28 46 10 28 26 55 36 60 9 5 17
15 17 22 0 7 9 30 20 51 10 21 21 56 23 78 5 51 21 67 39 39 7 -11 21 -21 31
-21 9 0 22 -11 27 -25 5 -14 16 -25 24 -25 10 0 13 -6 10 -15 -4 -8 -1 -15 5
-15 6 0 11 10 12 23 0 21 1 21 9 2 5 -11 9 -35 9 -52 1 -18 4 -33 9 -33 17 1
50 38 71 83 12 26 26 47 30 47 4 0 18 10 31 23 14 12 29 21 33 19 5 -1 18 0
29 4 18 5 18 7 3 31 l-16 24 24 -16 c13 -8 37 -39 53 -68 l29 -52 6 35 c4 19
7 29 8 23 0 -7 8 -13 16 -13 15 0 18 -9 16 -40 0 -8 4 -22 9 -30 9 -13 12 -13
23 1 6 8 19 18 29 21 9 4 19 20 23 37 4 17 11 31 16 31 12 0 12 -47 -1 -55
-13 -8 -13 -25 0 -25 13 0 43 105 45 160 3 68 7 71 15 10 5 -40 3 -64 -8 -88
-8 -18 -12 -36 -8 -39 4 -4 9 2 12 14 3 12 12 24 20 27 8 3 14 16 14 28 0 36
24 73 44 70 11 -2 20 5 23 17 3 12 12 21 20 21 9 0 13 -6 9 -15 -3 -8 -1 -15
4 -15 8 0 22 -26 47 -89 l9 -24 18 28 c10 15 24 46 31 69 8 23 14 33 14 21 1
-11 8 -29 16 -39 14 -19 15 -18 15 16 0 27 5 37 20 41 11 3 24 17 30 32 9 23
13 25 25 15 12 -10 15 -9 15 7 0 22 29 66 30 44 0 -11 3 -11 15 -1 19 15 19 8
0 -54 -8 -27 -15 -53 -15 -58 0 -15 21 -8 45 17 14 13 25 20 25 15 0 -21 20
-9 26 15 5 20 9 23 20 14 11 -9 14 -8 14 4 0 8 7 20 15 27 9 7 13 20 10 28 -9
23 6 103 17 96 6 -4 8 -25 5 -48z m-546 -91 c6 12 7 -5 3 -45 -3 -36 -10 -69
-14 -73 -4 -5 -5 3 -3 16 3 14 0 34 -6 46 -7 12 -8 32 -4 48 6 24 8 25 11 8
l5 -20 8 20z m732 -15 c3 -11 1 -20 -4 -20 -5 0 -9 9 -9 20 0 11 2 20 4 20 2
0 6 -9 9 -20z m-551 -44 c8 5 9 -1 5 -17 -4 -13 -7 -28 -7 -34 0 -5 -5 -3 -10
5 -5 8 -9 29 -9 45 1 17 3 22 6 12 2 -9 9 -14 15 -11z m55 -28 c-3 -8 -6 -5
-6 6 -1 11 2 17 5 13 3 -3 4 -12 1 -19z m-437 -88 c0 -5 -4 -10 -10 -10 -5 0
-10 5 -10 10 0 6 5 10 10 10 6 0 10 -4 10 -10z m1087 -62 c-3 -8 -6 -5 -6 6
-1 11 2 17 5 13 3 -3 4 -12 1 -19z m-1657 3 c0 -6 -4 -13 -10 -16 -5 -3 -10 1
-10 9 0 9 5 16 10 16 6 0 10 -4 10 -9z m1654 -45 c-3 -8 8 -28 25 -45 l30 -31
-39 0 c-33 0 -40 3 -40 20 0 13 -7 20 -20 20 -11 0 -20 5 -20 10 0 6 12 10 26
10 14 0 23 4 20 9 -5 8 0 13 21 20 1 1 0 -5 -3 -13z m-42 -58 c-9 -9 -15 -9
-24 0 -9 9 -7 12 12 12 19 0 21 -3 12 -12z m-645 -75 c-3 -10 -5 -2 -5 17 0
19 2 27 5 18 2 -10 2 -26 0 -35z m561 7 c18 -11 40 -36 48 -55 22 -53 28 -144
12 -190 -11 -34 -22 -45 -73 -71 -73 -37 -168 -69 -249 -83 -66 -12 -211 -13
-238 -3 -22 9 -65 64 -44 56 9 -3 16 -10 16 -15 0 -5 4 -9 9 -9 10 0 8 30 -3
66 -4 11 -20 28 -36 37 -35 21 -44 21 -36 2 12 -31 -6 -13 -20 20 -16 38 -19
75 -6 75 5 0 9 -13 9 -30 0 -31 8 -48 19 -37 3 3 2 12 -2 19 -5 7 -9 25 -10
39 -3 55 234 167 396 187 127 16 172 14 208 -8z m365 -50 c3 -12 0 -20 -8 -20
-8 0 -11 8 -8 20 3 11 7 20 8 20 1 0 5 -9 8 -20z m34 -55 c0 -8 -4 -12 -9 -9
-4 3 -8 9 -8 15 0 5 4 9 8 9 5 0 9 -7 9 -15z m-295 -140 c-5 -54 -31 -85 -82
-99 -22 -6 -21 -5 5 10 38 21 52 41 60 79 17 79 23 83 17 10z m-1005 29 c47
-7 63 -37 62 -114 -1 -107 -17 -150 -68 -184 -121 -81 -431 -144 -511 -103
-31 15 -86 121 -95 181 -13 82 24 121 164 174 130 50 304 68 448 46z m1280
-36 c-3 -7 -5 -2 -5 12 0 14 2 19 5 13 2 -7 2 -19 0 -25z m-1047 -38 c11 -11
20 -28 20 -39 0 -10 6 -24 14 -30 8 -7 17 -30 21 -52 4 -21 11 -39 16 -39 5 0
6 -12 3 -26 -5 -20 -2 -26 15 -31 11 -3 18 -9 16 -13 -8 -12 46 -64 69 -67 29
-5 31 -10 15 -41 -19 -37 -32 -49 -46 -45 -6 2 -14 -4 -17 -14 -8 -22 -81 -76
-116 -84 -14 -4 -34 -10 -44 -14 -13 -6 -17 -5 -12 3 8 13 -37 10 -56 -4 -33
-24 -69 -36 -97 -32 -39 6 -39 3 0 -18 22 -11 45 -14 73 -10 113 16 147 18
177 7 28 -10 35 -8 61 14 16 14 37 25 46 26 106 5 146 16 164 43 5 7 8 4 8 -6
0 -10 7 -18 15 -18 14 0 16 6 19 52 1 9 4 20 8 24 4 4 5 17 2 28 -4 18 2 24
30 36 20 7 36 17 36 20 0 10 -43 46 -62 53 -10 4 -18 13 -18 20 0 10 -18 16
-60 21 -46 5 -58 10 -53 21 3 8 0 15 -6 15 -15 0 -14 17 2 17 67 4 78 7 62 20
-14 10 -7 11 38 6 32 -3 62 -1 73 6 15 9 10 10 -26 6 l-45 -5 40 11 c22 5 54
8 70 5 22 -4 26 -3 15 4 -12 8 -12 10 5 10 18 1 115 32 170 55 19 8 19 8 3 -8
-9 -9 -21 -17 -27 -17 -5 0 -13 -4 -16 -10 -4 -6 4 -6 21 1 47 17 103 1 145
-42 55 -56 62 -73 49 -114 -7 -20 -19 -35 -28 -36 -15 -1 -15 -2 1 -6 17 -4
25 -33 8 -33 -5 0 -11 -24 -14 -52 -5 -54 -14 -103 -22 -125 -2 -7 -3 -13 -1
-13 3 0 11 -3 20 -6 12 -5 16 1 17 22 1 16 5 -2 9 -41 4 -38 3 -72 -1 -73 -5
-2 -7 -7 -5 -11 5 -8 -11 -83 -47 -221 -13 -52 -32 -140 -42 -195 -24 -141
-45 -222 -61 -236 -8 -6 -14 -17 -14 -24 0 -6 -10 -20 -22 -31 -12 -10 -18
-13 -13 -5 5 9 3 12 -6 9 -8 -3 -13 -13 -13 -22 1 -9 -3 -15 -9 -13 -11 3 -26
-7 -75 -50 -13 -13 -41 -26 -61 -29 -20 -4 -60 -16 -90 -27 -73 -26 -254 -29
-320 -4 -24 9 -55 17 -69 17 -22 0 -108 42 -122 59 -3 4 -27 18 -53 31 -26 14
-79 56 -118 93 -38 37 -78 71 -88 75 -20 8 -58 36 -127 94 -24 20 -50 41 -57
45 -7 4 -28 29 -47 56 -24 34 -36 44 -42 35 -7 -10 -8 -9 -6 2 2 14 -24 78
-58 142 -18 33 -18 68 0 68 9 0 12 7 9 20 -3 11 -11 20 -19 20 -7 0 -14 12
-16 28 -2 15 -8 26 -14 25 -7 -1 -17 10 -23 25 -7 16 -22 39 -35 53 -13 14
-27 36 -31 50 -4 13 -13 28 -20 34 -11 9 -30 89 -49 202 -6 35 4 47 47 57 16
4 27 14 28 24 1 16 2 16 6 0 2 -10 8 -18 12 -18 4 0 17 -18 30 -40 38 -69 61
-80 163 -80 98 0 258 29 340 61 28 11 53 18 55 15 3 -3 -7 -8 -21 -12 -15 -3
-25 -9 -22 -11 8 -9 74 20 72 31 -2 6 -1 8 1 4 3 -5 13 -8 23 -8 22 0 56 45
65 86 12 52 57 189 68 202 15 19 65 14 87 -8z m124 -9 c16 -17 16 -19 -1 -23
-13 -4 -18 1 -19 19 -2 28 -2 28 20 4z m-1204 -150 c0 -6 -4 -13 -10 -16 -5
-3 -10 1 -10 9 0 9 5 16 10 16 6 0 10 -4 10 -9z m1965 -41 c7 -22 6 -23 -9
-11 -9 7 -16 23 -16 34 0 26 15 12 25 -23z m-1955 -10 c21 -21 25 -30 13 -30
-9 1 -47 50 -38 50 3 0 14 -9 25 -20z m1355 -82 c1 -2 5 -15 9 -30 5 -24 3
-28 -14 -28 -12 0 -24 -9 -29 -22 -7 -19 -9 -16 -14 19 -4 23 -10 49 -13 58
-6 14 -2 16 26 12 17 -3 33 -7 35 -9z m-1565 -253 c0 -3 -19 -29 -43 -58 -23
-28 -53 -69 -65 -89 -13 -21 -29 -38 -36 -38 -20 0 -36 22 -36 51 0 21 13 35
62 70 87 61 118 78 118 64z m2146 -72 c-11 -11 -19 6 -11 24 8 17 8 17 12 0 3
-10 2 -21 -1 -24z m141 -505 c-3 -8 -6 -5 -6 6 -1 11 2 17 5 13 3 -3 4 -12 1
-19z m10 -70 c-3 -7 -5 -2 -5 12 0 14 2 19 5 13 2 -7 2 -19 0 -25z m-49 -70
c-4 -27 -3 -29 7 -14 12 15 14 15 29 1 9 -9 16 -23 16 -32 0 -9 6 -13 15 -9
17 6 21 -19 5 -29 -11 -7 -3 -105 13 -145 9 -24 10 -24 18 -5 5 13 7 0 4 -37
-3 -48 0 -63 21 -93 13 -20 24 -44 24 -54 0 -9 6 -26 14 -36 8 -12 11 -26 6
-35 -8 -15 4 -60 16 -60 4 0 4 14 0 32 -6 31 -6 31 14 13 11 -10 20 -23 20
-30 0 -21 -301 -115 -372 -115 -23 0 -119 -9 -213 -21 -141 -17 -200 -20 -345
-14 -159 6 -401 -9 -496 -30 -21 -5 -21 -4 -8 58 7 34 13 83 14 108 0 61 10
110 21 103 5 -3 9 0 9 6 0 15 -39 3 -65 -20 -49 -44 -389 -213 -462 -230 -64
-14 -131 -5 -201 27 -56 27 -122 80 -122 99 0 6 -7 18 -16 25 -9 8 -30 43 -46
79 -16 36 -38 83 -49 105 -21 42 -17 75 7 75 8 0 17 -6 20 -14 3 -8 12 -12 20
-9 8 3 49 -6 92 -20 83 -27 210 -50 225 -40 12 7 211 11 245 5 16 -3 23 -11
22 -26 -3 -37 11 -64 36 -70 29 -8 94 18 94 36 0 7 13 19 29 26 16 7 35 26 41
43 9 21 22 32 43 36 25 5 27 8 15 17 -8 6 -18 29 -21 50 -5 32 -3 43 15 58 24
20 28 21 47 9 7 -5 11 -13 7 -19 -3 -6 -2 -13 4 -17 5 -3 10 1 10 9 0 9 3 16
6 16 8 0 87 -43 94 -51 3 -3 39 -15 80 -28 41 -13 89 -27 105 -32 17 -5 50
-14 75 -20 35 -9 41 -13 26 -19 -18 -6 -18 -7 -2 -13 36 -14 258 -38 323 -35
67 3 67 4 26 12 -24 5 -43 13 -43 18 0 5 5 6 10 3 9 -6 14 7 11 30 -1 6 5 2
12 -7 13 -17 15 -16 33 7 10 14 23 25 29 25 6 0 26 15 45 34 39 37 97 63 71
32 -15 -18 -10 -27 24 -40 6 -2 5 -11 -3 -25 -8 -14 -8 -21 -1 -21 5 0 7 -4 4
-10 -9 -15 26 0 61 27 17 12 33 21 36 18 5 -6 62 71 72 99 6 18 5 18 -20 1
-41 -26 -37 -13 11 44 27 31 45 63 45 77 0 21 38 94 49 94 2 0 1 -14 -1 -32z
m72 12 c0 -5 -4 -10 -10 -10 -5 0 -10 5 -10 10 0 6 5 10 10 10 6 0 10 -4 10
-10z m-1347 -183 c2 -7 0 -23 -4 -37 l-7 -25 -1 24 c-1 14 -8 32 -17 42 -15
16 -14 17 4 12 12 -3 22 -10 25 -16z m1057 -97 c0 -5 -4 -10 -10 -10 -5 0 -10
5 -10 10 0 6 5 10 10 10 6 0 10 -4 10 -10z m-180 -4 c0 -3 -4 -8 -10 -11 -5
-3 -10 -1 -10 4 0 6 5 11 10 11 6 0 10 -2 10 -4z m-309 -74 c-7 -2 -18 1 -23
6 -8 8 -4 9 13 5 13 -4 18 -8 10 -11z m930 -12 c35 -11 84 -36 108 -55 24 -19
49 -35 55 -35 6 -1 0 -10 -13 -20 -27 -23 -61 -26 -61 -6 0 8 -19 29 -42 47
-24 19 -45 36 -48 40 -3 4 -24 12 -47 19 -24 7 -43 17 -43 22 0 13 22 10 91
-12z m-1852 -443 c-2 -2 -18 -11 -36 -19 -24 -12 -30 -13 -26 -2 5 12 23 20
52 23 8 0 12 -1 10 -2z m-169 -97 c0 -5 -6 -10 -14 -10 -8 0 -22 -7 -31 -16
-9 -9 -18 -14 -22 -11 -3 3 10 15 28 26 39 24 39 24 39 11z m-80 -54 c0 -2 -7
-7 -16 -10 -8 -3 -12 -2 -9 4 6 10 25 14 25 6z m-166 -101 c-10 -8 -23 -15
-28 -15 -5 0 -28 -17 -50 -38 -30 -27 -55 -41 -85 -46 -33 -5 -42 -10 -37 -22
3 -9 2 -12 -5 -8 -6 3 -30 -1 -55 -11 -24 -9 -50 -15 -57 -12 -6 2 14 13 46
25 57 22 127 57 222 112 53 31 82 40 49 15z m5213 9 c-3 -3 -12 -4 -19 -1 -8
3 -5 6 6 6 11 1 17 -2 13 -5z m-1617 -122 c30 -28 53 -53 50 -55 -3 -3 -59
-19 -125 -36 -66 -18 -154 -41 -195 -52 -41 -11 -96 -23 -122 -28 -45 -7 -49
-6 -64 18 -10 14 -39 51 -66 82 -26 31 -48 62 -48 68 0 6 18 11 41 11 23 0
103 16 178 36 75 20 161 40 191 43 61 8 52 13 160 -87z m1700 42 c0 -8 -4 -12
-10 -9 -5 3 -10 13 -10 21 0 8 5 12 10 9 6 -3 10 -13 10 -21z m-2353 -111 c60
-77 95 -135 87 -143 -10 -9 -155 -50 -178 -50 -8 0 -29 24 -47 53 -18 28 -46
69 -62 89 -16 21 -27 43 -25 50 5 15 87 35 150 37 42 1 49 -2 75 -36z m-3297
7 c-8 -5 -19 -10 -25 -10 -5 0 -3 5 5 10 8 5 20 10 25 10 6 0 3 -5 -5 -10z
m3006 -118 c33 -48 82 -124 110 -170 27 -45 69 -106 94 -135 25 -29 53 -64 63
-78 9 -13 78 -107 152 -209 74 -102 134 -191 132 -199 -2 -13 -170 -91 -197
-90 -8 0 -46 45 -85 101 -63 91 -158 222 -298 409 -41 54 -257 386 -257 394 0
2 77 27 185 60 30 9 45 -3 101 -83z m-3227 -31 c-18 -17 -36 -28 -38 -25 -6 6
49 54 62 54 5 0 -5 -13 -24 -29z m4007 21 c6 -4 30 -34 54 -67 24 -33 75 -94
115 -135 39 -41 97 -111 129 -155 87 -120 122 -153 153 -147 17 3 24 1 22 -7
-3 -7 -8 -12 -13 -11 -4 1 -13 -6 -19 -14 -10 -13 -198 -80 -203 -73 0 1 -25
31 -55 67 -30 36 -66 81 -79 100 -34 49 -153 192 -175 210 -10 8 -43 49 -74
90 -30 41 -59 77 -63 78 -16 7 -7 23 20 33 82 32 167 46 188 31z m-1154 -79
c40 -41 158 -211 158 -226 0 -3 39 -54 86 -113 111 -139 147 -192 141 -207 -3
-7 -42 -25 -88 -40 -84 -27 -129 -34 -129 -19 0 4 -30 44 -66 87 -36 44 -82
100 -102 124 -60 72 -85 106 -126 173 -22 35 -67 91 -100 126 -35 37 -56 66
-50 71 7 7 49 22 184 65 34 10 48 4 92 -41z m-2912 12 c-7 -9 -15 -13 -17 -11
-7 7 7 26 19 26 6 0 6 -6 -2 -15z m-40 -35 c-6 -11 -12 -20 -14 -20 -2 0 -2 9
1 20 3 11 9 20 15 20 5 0 4 -9 -2 -20z m3786 -7 c6 -10 60 -77 120 -148 154
-185 308 -375 312 -385 3 -9 -173 -80 -198 -80 -8 0 -22 11 -30 24 -19 30
-214 287 -290 381 -71 88 -125 164 -119 168 5 4 171 54 184 56 6 1 15 -7 21
-16z m-1176 -125 c82 -66 92 -77 152 -168 27 -41 75 -102 107 -135 31 -33 71
-80 87 -105 56 -81 215 -390 207 -402 -5 -9 -152 -56 -201 -64 l-37 -6 -70
139 c-102 201 -151 281 -210 343 -30 30 -74 87 -99 125 -91 140 -138 192 -222
241 -16 9 -2 16 86 47 58 19 112 36 120 36 8 1 44 -22 80 -51z m2369 -343 c9
2 21 1 27 -3 13 -8 54 -86 54 -102 0 -19 -20 -10 -25 13 -5 19 -12 22 -60 22
-30 0 -55 -3 -55 -7 0 -5 -4 -8 -10 -8 -5 0 -10 6 -10 14 0 7 -7 20 -17 27
-15 13 -15 12 -2 -8 15 -25 11 -33 -20 -36 -11 -1 -21 -5 -21 -9 0 -18 -29 6
-46 38 -10 19 -22 34 -26 34 -5 0 -8 5 -8 10 0 6 7 10 15 10 8 0 15 -4 15 -9
0 -9 55 -5 71 5 6 3 16 1 23 -5 10 -9 15 -8 20 5 4 9 12 14 22 10 8 -3 12 -2
9 4 -3 6 -3 15 1 22 5 8 11 5 17 -10 6 -14 16 -20 26 -17z m-195 -60 c9 -13
16 -28 16 -34 0 -15 -31 -22 -46 -11 -9 9 -15 6 -24 -9 -14 -28 -45 -26 -75 4
-28 28 -33 21 -9 -14 13 -18 14 -25 4 -34 -9 -9 -18 -4 -39 21 -15 17 -35 32
-44 32 -26 0 -20 25 8 38 33 15 55 15 55 1 0 -8 5 -8 15 1 8 7 28 10 44 8 17
-2 30 -2 29 1 -3 31 45 28 66 -4z m-6851 -77 c4 -43 2 -58 -9 -62 -11 -4 -14
9 -14 66 0 84 15 81 23 -4z m6596 7 c12 -25 21 -49 21 -55 0 -18 -27 -10 -42
12 -15 22 -15 22 -11 -8 4 -26 1 -32 -19 -37 -32 -9 -35 -9 -52 9 -25 25 -20
63 8 70 14 3 30 3 37 -1 8 -5 9 -1 5 13 -6 17 9 37 30 42 1 0 11 -20 23 -45z
m-157 -81 c17 -37 3 -57 -36 -52 -23 2 -32 0 -29 -8 2 -7 -6 -15 -18 -19 -18
-6 -28 -1 -47 21 l-24 29 16 -31 c15 -30 14 -32 -10 -43 -14 -6 -33 -11 -44
-11 -10 0 -22 -4 -25 -10 -11 -18 -35 -10 -47 15 -6 14 -15 25 -20 25 -5 0 -4
-9 2 -19 14 -27 13 -51 -3 -51 -14 0 -57 80 -57 105 0 23 25 18 39 -7 l12 -23
-5 23 c-5 26 21 43 33 23 5 -7 18 -10 33 -6 19 5 27 1 36 -17 11 -22 11 -22 9
7 -2 23 2 30 16 29 13 -2 16 3 12 17 -4 13 -1 21 11 26 10 4 19 2 22 -5 2 -7
11 -12 19 -12 9 0 13 -6 10 -15 -4 -8 -2 -17 3 -20 6 -4 10 7 10 24 0 16 5 31
12 33 25 9 60 -5 70 -28z m-6424 -30 c-13 -29 -30 -27 -34 3 -3 14 2 23 14 26
27 6 32 -2 20 -29z m89 -20 c-3 -3 -12 -4 -19 -1 -8 3 -5 6 6 6 11 1 17 -2 13
-5z m5977 -20 c9 -3 16 -15 16 -26 0 -12 7 -26 17 -33 19 -14 11 -45 -11 -45
-9 0 -23 14 -31 31 -9 17 -19 28 -23 25 -3 -4 0 -12 6 -18 29 -29 2 -68 -47
-68 -10 0 -22 -6 -24 -12 -3 -9 -14 -3 -32 17 -21 24 -24 26 -15 7 16 -32 5
-59 -15 -42 -12 10 -15 9 -15 -4 0 -9 -8 -16 -21 -16 -14 0 -26 13 -40 46 -35
78 4 108 41 32 18 -38 20 -34 4 7 -8 20 40 39 66 25 14 -7 19 -5 23 10 3 13
17 22 36 26 21 5 31 12 31 25 0 20 8 23 34 13z m-6099 -24 c-3 -5 -14 -10 -23
-10 -15 0 -15 2 -2 10 20 13 33 13 25 0z m7339 -156 c8 -3 12 -12 9 -21 -5
-12 -7 -12 -15 -1 -6 8 -7 4 -2 -12 4 -14 8 -34 8 -45 1 -21 25 -67 26 -50 1
11 29 -59 37 -92 3 -13 9 -23 14 -23 5 0 9 -5 9 -11 0 -18 -20 1 -36 34 -8 18
-30 61 -49 97 -33 61 -43 108 -28 123 8 8 8 8 27 1z m46 -34 c8 -5 11 -10 5
-10 -5 0 -17 5 -25 10 -8 5 -10 10 -5 10 6 0 17 -5 25 -10z m79 -37 c17 -10
31 -21 31 -25 0 -5 7 -8 15 -8 8 0 24 -5 34 -12 15 -9 24 -8 46 9 27 19 29 19
47 1 19 -19 25 -44 8 -33 -5 3 -10 -2 -10 -12 -1 -29 -24 -55 -38 -41 -9 9
-12 6 -12 -15 0 -15 -4 -27 -10 -27 -5 0 -10 -9 -10 -20 0 -11 -6 -20 -13 -20
-7 0 -18 -12 -24 -27 -11 -26 -11 -25 -10 17 1 25 6 44 11 42 13 -5 46 49 46
76 0 13 -6 22 -16 22 -8 0 -12 -4 -9 -10 6 -9 -8 -14 -20 -7 -8 4 -34 -38 -36
-58 -1 -11 -5 0 -8 24 -6 43 -7 44 -23 27 -17 -17 -18 -17 -18 2 0 11 7 25 15
32 8 7 15 20 15 30 0 24 -36 32 -56 13 -19 -19 -28 -11 -19 16 8 26 24 26 64
4z m341 -55 c0 -16 -3 -19 -11 -11 -6 6 -8 16 -5 22 11 17 16 13 16 -11z
m-370 -53 c0 -8 -4 -15 -10 -15 -5 0 -10 7 -10 15 0 8 5 15 10 15 6 0 10 -7
10 -15z m40 -159 c0 -17 7 -42 16 -54 9 -13 11 -22 4 -22 -6 0 -13 8 -17 18
-3 9 -15 29 -25 44 -24 35 -24 58 2 51 15 -4 20 -14 20 -37z m21 11 c-10 -9
-11 -8 -5 6 3 10 9 15 12 12 3 -3 0 -11 -7 -18z m259 -67 c0 -5 -5 -10 -11
-10 -5 0 -7 5 -4 10 3 6 8 10 11 10 2 0 4 -4 4 -10z m-145 -328 c-2 -15 -4
-31 -4 -35 -1 -5 -5 -5 -11 -2 -5 3 -10 22 -10 40 0 26 4 33 14 29 9 -3 13
-16 11 -32z"/>
<path d="M4430 5610 c0 -5 5 -10 10 -10 6 0 10 5 10 10 0 6 -4 10 -10 10 -5 0
-10 -4 -10 -10z"/>
<path d="M3320 5181 c0 -5 -9 -7 -19 -4 -23 6 -81 -26 -81 -45 0 -7 -7 -12
-16 -10 -10 2 -19 -3 -21 -9 -3 -9 9 -13 42 -13 28 0 44 -4 40 -10 -3 -5 -15
-10 -26 -10 -11 0 -17 -4 -14 -10 3 -5 27 -10 53 -9 38 0 43 2 25 9 -37 15
-27 17 48 8 79 -10 100 -4 51 13 -30 10 -44 29 -22 29 20 0 80 -29 80 -38 0
-8 58 -23 84 -21 5 0 12 -5 16 -11 5 -8 12 -7 24 5 21 22 20 35 -3 35 -11 0
-26 9 -33 19 -8 11 -27 21 -43 23 -20 2 -33 11 -40 26 -12 28 -32 34 -70 23
-17 -4 -40 -4 -53 0 -12 5 -22 4 -22 0z"/>
<path d="M3081 5141 c-20 -11 -44 -36 -58 -62 -26 -49 -28 -66 -12 -71 9 -3 9
-9 0 -26 -10 -19 -9 -21 6 -15 10 4 24 12 31 19 10 10 9 15 -5 24 -15 9 -13
10 11 8 17 -2 31 2 33 10 3 7 1 12 -4 11 -20 -3 -23 2 -9 16 8 8 21 15 28 15
20 1 44 23 53 49 5 17 4 22 -6 19 -8 -3 -15 -14 -17 -26 -2 -12 -8 -22 -13
-22 -16 0 -10 25 11 48 19 20 19 22 3 22 -10 -1 -33 -9 -52 -19z"/>
<path d="M3115 5059 c-10 -15 3 -25 16 -12 7 7 7 13 1 17 -6 3 -14 1 -17 -5z"/>
<path d="M4526 5155 c19 -14 19 -14 -3 -15 -12 0 -25 -5 -28 -10 -4 -6 -23 -7
-44 -4 -39 6 -66 -10 -42 -26 7 -4 -25 -10 -71 -13 -109 -7 -189 -35 -233 -80
-48 -50 -46 -60 15 -53 28 3 55 8 61 12 6 3 25 8 42 11 18 3 38 10 45 15 6 6
12 8 12 4 0 -3 16 1 36 9 42 17 84 20 84 5 0 -5 -4 -10 -10 -10 -5 0 -10 -6
-10 -13 0 -22 -128 -70 -192 -72 -54 -1 -94 -14 -52 -16 10 0 29 -2 41 -3 31
-4 182 21 216 35 15 6 27 17 27 24 0 35 68 58 108 37 12 -7 22 -10 22 -6 0 3
6 2 13 -4 26 -22 40 3 34 60 -7 68 -23 103 -54 117 -33 15 -41 14 -17 -4z
m-286 -109 c0 -3 -4 -8 -10 -11 -5 -3 -10 -1 -10 4 0 6 5 11 10 11 6 0 10 -2
10 -4z m-77 -58 c-2 -5 -11 -8 -19 -8 -17 0 -19 37 -1 43 12 4 28 -22 20 -35z"/>
<path d="M3530 4920 c-8 -5 -10 -10 -5 -10 6 0 17 5 25 10 8 5 11 10 5 10 -5
0 -17 -5 -25 -10z"/>
<path d="M3465 4900 c-85 -8 -139 -26 -247 -84 -47 -26 -80 -36 -117 -37 -56
-2 -66 -13 -50 -59 l11 -30 28 20 c15 11 33 20 40 20 7 0 10 7 6 15 -4 10 3
17 22 20 15 4 45 10 67 15 22 6 78 15 125 21 99 12 170 28 187 41 7 6 19 6 30
-1 17 -10 17 -10 0 -11 -11 0 -31 -8 -45 -19 -34 -23 -103 -54 -162 -72 -42
-12 -43 -13 -16 -17 16 -2 39 1 50 6 12 5 43 18 69 27 26 9 60 27 75 39 15 13
34 27 43 32 14 8 15 14 5 44 -13 40 -13 40 -121 30z m100 -10 c3 -5 1 -10 -4
-10 -6 0 -11 5 -11 10 0 6 2 10 4 10 3 0 8 -4 11 -10z m-76 -31 c-16 -10 -23
-4 -14 10 3 6 11 8 17 5 6 -4 5 -9 -3 -15z m-99 1 c-8 -5 -19 -10 -25 -10 -5
0 -3 5 5 10 8 5 20 10 25 10 6 0 3 -5 -5 -10z m-65 -30 c3 -5 -1 -10 -10 -10
-9 0 -13 5 -10 10 3 6 8 10 10 10 2 0 7 -4 10 -10z"/>
<path d="M3675 4827 c-4 -10 -5 -21 -1 -24 10 -10 18 4 13 24 -4 17 -4 17 -12
0z"/>
<path d="M3213 4763 c-19 -7 -16 -19 6 -20 14 -1 18 3 14 13 -3 8 -6 14 -7 13
0 0 -7 -3 -13 -6z"/>
<path d="M3666 4754 c-4 -10 -1 -14 6 -12 15 5 23 28 10 28 -5 0 -13 -7 -16
-16z"/>
<path d="M3556 4475 c-9 -13 -16 -28 -16 -33 0 -5 -7 -15 -15 -22 -8 -7 -15
-21 -15 -32 0 -16 -3 -18 -14 -9 -10 9 -16 8 -26 -4 -7 -8 -10 -16 -6 -16 3
-1 10 -2 15 -3 5 0 12 -4 15 -8 3 -5 3 -6 0 -4 -3 2 -14 -3 -25 -12 -13 -11
-19 -29 -19 -58 0 -25 -6 -47 -15 -54 -10 -9 -15 -32 -15 -76 0 -69 14 -86 24
-29 4 19 13 47 21 62 8 15 15 33 15 38 0 6 11 22 24 37 14 14 22 28 19 32 -5
5 1 34 30 144 12 44 30 51 35 14 6 -38 22 -24 22 18 0 33 -4 40 -19 40 -10 0
-26 -11 -35 -25z"/>
<path d="M4420 4470 c0 -5 18 -20 40 -32 30 -17 48 -40 75 -91 19 -37 35 -80
35 -95 0 -21 2 -24 10 -12 25 40 -21 149 -80 187 -19 13 -43 30 -53 38 -20 17
-27 19 -27 5z"/>
<path d="M4380 4360 c0 -5 5 -10 11 -10 5 0 7 5 4 10 -3 6 -8 10 -11 10 -2 0
-4 -4 -4 -10z"/>
<path d="M4412 4325 c3 -44 -2 -55 -24 -55 -18 0 -20 2 -8 10 21 13 5 23 -18
11 -12 -6 -65 -11 -119 -12 -101 -1 -188 -16 -188 -34 -1 -36 -53 -62 -87 -44
-10 5 -18 6 -19 2 0 -4 -2 -16 -4 -25 -4 -24 39 -32 70 -12 14 9 32 13 45 9
12 -4 36 0 57 10 35 17 37 17 50 -1 7 -10 13 -25 14 -33 0 -12 3 -10 9 4 14
31 11 45 -7 45 -13 0 -14 3 -6 11 9 9 16 8 27 -2 8 -8 22 -20 31 -27 8 -7 15
-23 15 -35 1 -20 2 -20 16 6 18 33 22 33 34 5 7 -18 9 -19 9 -5 1 27 21 20 21
-8 0 -16 -4 -23 -14 -19 -8 3 -16 -4 -19 -17 -4 -14 -11 -20 -21 -16 -8 3 -20
-1 -26 -9 -7 -8 -20 -14 -30 -14 -10 0 -20 -6 -23 -14 -4 -10 0 -12 15 -8 13
3 19 1 15 -5 -4 -6 0 -13 8 -17 9 -3 15 0 15 9 0 8 5 15 11 15 6 0 8 -9 5 -20
-3 -11 -8 -28 -11 -39 -3 -10 1 -24 10 -31 10 -8 15 -9 15 -2 0 6 7 9 15 6 8
-4 15 -1 15 4 0 6 13 18 28 27 50 30 101 137 70 147 -7 3 -3 13 10 26 12 12
22 29 22 37 0 8 7 15 15 15 24 0 18 37 -7 45 -14 4 -18 8 -10 12 6 2 12 14 12
24 0 11 -4 18 -9 14 -6 -3 -14 3 -20 12 -10 17 -11 16 -9 -2z m-427 -145 c3
-5 2 -10 -4 -10 -5 0 -13 5 -16 10 -3 6 -2 10 4 10 5 0 13 -4 16 -10z m42 4
c-3 -3 -12 -4 -19 -1 -8 3 -5 6 6 6 11 1 17 -2 13 -5z m343 -37 c0 -18 -2 -19
-10 -7 -13 20 -13 43 0 35 6 -3 10 -16 10 -28z"/>
<path d="M4650 4324 c0 -8 5 -12 10 -9 6 3 10 10 10 16 0 5 -4 9 -10 9 -5 0
-10 -7 -10 -16z"/>
<path d="M3401 4174 c0 -11 3 -14 6 -6 3 7 2 16 -1 19 -3 4 -6 -2 -5 -13z"/>
<path d="M3807 4176 c-57 -16 -169 -90 -192 -128 -9 -16 -13 -29 -8 -30 4 0
13 -2 18 -2 6 -1 21 -8 34 -15 30 -17 121 -26 121 -13 0 6 -5 12 -11 14 -7 2
-13 19 -14 37 -2 22 0 29 6 20 13 -22 20 -4 9 25 -8 22 -6 31 8 46 24 26 92
23 103 -5 6 -17 8 -17 8 -3 1 9 10 24 22 32 48 33 -13 46 -104 22z"/>
<path d="M3230 4161 c0 -5 5 -13 10 -16 6 -3 10 -2 10 4 0 5 -4 13 -10 16 -5
3 -10 2 -10 -4z"/>
<path d="M4095 4150 c3 -5 8 -10 11 -10 2 0 4 5 4 10 0 6 -5 10 -11 10 -5 0
-7 -4 -4 -10z"/>
<path d="M4113 4025 c-7 -8 -30 -17 -50 -20 -59 -10 -72 -19 -34 -23 18 -2 38
1 44 7 6 6 18 11 27 11 8 0 29 9 45 20 30 20 30 20 5 20 -14 -1 -31 -7 -37
-15z"/>
<path d="M3290 3996 c0 -2 7 -6 15 -10 8 -3 15 -1 15 4 0 6 -7 10 -15 10 -8 0
-15 -2 -15 -4z"/>
<path d="M3945 3980 c-18 -8 -17 -9 8 -9 16 -1 26 3 22 9 -3 6 -7 10 -8 9 -1
0 -11 -4 -22 -9z"/>
<path d="M4356 3958 c-3 -7 -4 -21 -3 -31 0 -16 3 -15 23 4 13 12 21 26 18 30
-8 13 -34 11 -38 -3z"/>
<path d="M3802 3930 c0 -14 2 -19 5 -12 2 6 2 18 0 25 -3 6 -5 1 -5 -13z"/>
<path d="M4156 3868 c-11 -6 -44 -12 -74 -14 -33 -2 -62 -9 -71 -19 -14 -13
-11 -15 24 -16 22 -1 50 -3 63 -4 12 -1 22 3 22 10 0 7 13 15 29 18 16 3 31
13 34 21 7 19 -1 20 -27 4z"/>
<path d="M3688 3403 c7 -3 16 -2 19 1 4 3 -2 6 -13 5 -11 0 -14 -3 -6 -6z"/>
<path d="M4690 3310 c-9 -6 -10 -10 -3 -10 6 0 15 5 18 10 8 12 4 12 -15 0z"/>
<path d="M3616 3295 c4 -8 8 -15 10 -15 2 0 4 7 4 15 0 8 -4 15 -10 15 -5 0
-7 -7 -4 -15z"/>
<path d="M3640 3219 c0 -5 5 -7 10 -4 6 3 10 8 10 11 0 2 -4 4 -10 4 -5 0 -10
-5 -10 -11z"/>
<path d="M6580 1520 c0 -5 5 -10 11 -10 5 0 7 5 4 10 -3 6 -8 10 -11 10 -2 0
-4 -4 -4 -10z"/>
<path d="M6260 1406 c0 -9 5 -16 10 -16 6 0 10 4 10 9 0 6 -4 13 -10 16 -5 3
-10 -1 -10 -9z"/>
<path d="M3307 6413 c-27 -8 -46 -17 -43 -20 6 -6 104 16 126 28 25 14 -29 9
-83 -8z"/>
<path d="M6764 6106 c-10 -26 1 -51 21 -51 23 0 32 30 15 50 -16 19 -29 19
-36 1z"/>
<path d="M6498 6067 c-16 -13 -28 -27 -28 -33 0 -6 -13 -20 -30 -32 -16 -13
-30 -29 -30 -38 0 -8 -4 -13 -9 -9 -16 9 -41 -25 -41 -56 0 -16 5 -29 10 -29
6 0 10 6 10 13 0 8 4 7 10 -3 8 -13 10 -12 10 3 0 9 3 17 8 18 4 0 24 1 45 3
21 2 51 13 67 24 16 12 33 22 39 22 5 0 12 7 15 16 3 8 10 12 16 9 14 -9 13
55 -2 88 -16 34 -52 35 -90 4z"/>
<path d="M6415 5880 c3 -5 8 -10 11 -10 2 0 4 5 4 10 0 6 -5 10 -11 10 -5 0
-7 -4 -4 -10z"/>
<path d="M6154 5264 c4 -16 17 -51 29 -77 26 -57 21 -56 180 -2 107 38 133 59
101 86 -11 9 -32 6 -96 -16 -112 -38 -153 -37 -191 6 l-30 33 7 -30z"/>
<path d="M7610 5221 c0 -11 26 -22 34 -14 12 12 5 23 -14 23 -11 0 -20 -4 -20
-9z"/>
<path d="M8095 5220 c3 -5 8 -10 11 -10 2 0 4 5 4 10 0 6 -5 10 -11 10 -5 0
-7 -4 -4 -10z"/>
<path d="M6480 5014 c-51 -23 -136 -44 -175 -44 -20 0 -35 -5 -35 -11 0 -7 -8
-18 -17 -25 -36 -26 -2 -26 74 1 43 14 87 31 98 36 11 5 39 15 61 22 23 7 42
16 44 22 3 16 -13 15 -50 -1z"/>
<path d="M685 4765 c-33 -7 -107 -15 -165 -19 -180 -10 -331 -32 -478 -68
l-42 -11 1 -336 c1 -185 3 -330 6 -323 6 16 23 16 23 -1 0 -8 11 -20 25 -27
14 -8 28 -24 31 -37 4 -13 10 -23 15 -23 5 0 9 -8 10 -17 0 -13 3 -11 11 7 10
24 10 24 18 5 5 -11 9 -14 9 -8 1 7 11 12 22 10 17 -1 25 6 35 38 8 22 26 54
40 70 14 17 32 42 40 58 8 15 19 27 24 27 6 0 10 7 10 15 0 8 18 28 40 43 27
18 44 39 51 65 9 28 17 37 35 37 17 0 25 9 33 33 6 18 31 52 56 75 25 23 58
62 73 86 15 25 30 45 35 45 4 1 11 1 15 1 4 0 14 17 21 38 18 49 28 60 68 77
18 8 33 18 33 24 0 5 20 21 44 35 45 26 63 60 44 83 -13 17 -103 16 -183 -2z
m-215 -419 c0 -3 -4 -8 -10 -11 -5 -3 -10 -1 -10 4 0 6 5 11 10 11 6 0 10 -2
10 -4z m-405 -336 c3 -5 2 -10 -4 -10 -5 0 -13 5 -16 10 -3 6 -2 10 4 10 5 0
13 -4 16 -10z m59 -65 c-4 -8 -8 -15 -10 -15 -2 0 -4 7 -4 15 0 8 4 15 10 15
5 0 7 -7 4 -15z"/>
<path d="M7279 4690 c0 -3 -2 -13 -4 -22 -2 -12 3 -18 13 -18 10 0 23 -9 30
-20 7 -11 17 -20 23 -20 6 0 17 -7 26 -15 8 -8 19 -13 24 -10 5 4 9 1 9 -4 0
-6 9 -3 20 6 27 24 25 30 -14 43 -19 6 -40 18 -46 26 -7 7 -22 14 -34 14 -12
0 -27 5 -34 12 -7 7 -12 10 -13 8z"/>
<path d="M7564 4666 c-8 -21 12 -44 25 -30 6 5 4 16 -4 28 -13 18 -15 18 -21
2z"/>
<path d="M7801 4544 c0 -11 3 -14 6 -6 3 7 2 16 -1 19 -3 4 -6 -2 -5 -13z"/>
<path d="M7320 4528 l-25 -21 30 7 c17 3 37 8 45 10 8 3 19 5 24 5 16 2 0 12
-25 16 -15 2 -34 -4 -49 -17z"/>
<path d="M7730 4541 c0 -16 27 -31 44 -25 20 8 21 20 0 28 -23 9 -44 7 -44 -3z"/>
<path d="M7504 4495 c-9 -22 3 -33 36 -30 40 3 48 12 24 30 -25 19 -53 19 -60
0z"/>
<path d="M2756 4491 c-8 -12 3 -41 15 -41 5 0 9 5 9 11 0 6 9 9 20 6 25 -6 48
18 24 27 -23 9 -62 7 -68 -3z"/>
<path d="M7389 4443 c-13 -15 -11 -16 20 -10 18 4 39 7 45 7 17 0 -17 20 -35
20 -9 0 -23 -8 -30 -17z"/>
<path d="M5265 4375 c-57 -13 -95 -31 -95 -45 0 -6 8 -10 18 -10 31 0 58 -35
127 -162 81 -151 145 -261 155 -268 4 -3 13 -16 20 -30 18 -35 83 -120 91
-120 7 0 -5 58 -20 95 -5 11 -18 52 -30 90 -30 95 -77 218 -111 290 -47 102
-59 129 -62 150 -4 24 -24 26 -93 10z"/>
<path d="M2936 4195 c-8 -21 7 -26 43 -12 40 15 39 23 -3 25 -21 1 -36 -4 -40
-13z"/>
<path d="M8010 4149 c0 -5 5 -7 10 -4 6 3 10 8 10 11 0 2 -4 4 -10 4 -5 0 -10
-5 -10 -11z"/>
<path d="M6855 4120 c-30 -8 -30 -8 8 -9 23 -1 36 3 32 9 -3 6 -7 9 -8 9 -1
-1 -15 -5 -32 -9z"/>
<path d="M7466 4052 c-8 -13 5 -53 16 -50 5 2 9 7 9 11 -1 4 -1 16 -1 27 0 20
-14 27 -24 12z"/>
<path d="M8043 4036 c-6 -8 -9 -16 -6 -19 6 -7 43 15 43 25 0 13 -24 8 -37 -6z"/>
<path d="M6630 3970 c-8 -5 -18 -6 -22 -4 -4 3 -8 1 -8 -5 0 -18 17 -21 36 -6
21 15 16 29 -6 15z"/>
<path d="M4 3803 c3 -93 5 -213 4 -268 -1 -55 -3 -287 -4 -515 l-4 -415 25 70
c30 82 45 102 45 59 0 -17 7 -39 15 -50 8 -10 15 -26 15 -35 0 -8 11 -39 25
-67 14 -29 25 -56 25 -62 0 -18 20 -11 20 8 1 16 1 16 14 0 8 -11 21 -16 37
-13 40 8 140 16 205 16 43 -1 66 4 74 14 7 8 23 15 36 15 13 0 24 5 24 10 0
14 51 59 66 60 7 0 23 15 38 34 17 22 38 37 63 43 24 5 42 17 48 31 7 15 15
20 29 16 13 -5 31 7 65 42 47 50 69 67 109 84 12 5 22 14 22 20 0 5 9 10 20
10 11 0 20 3 20 8 0 4 23 18 50 31 28 13 50 28 50 32 0 5 14 9 31 9 16 0 28 4
25 9 -3 4 14 14 37 21 23 6 50 21 60 31 10 10 27 19 37 19 11 0 28 8 38 18 10
9 27 22 37 28 12 6 16 15 10 23 -5 10 -23 12 -64 7 -89 -10 -93 -11 -153 -39
-86 -40 -103 -42 -141 -18 -18 11 -39 32 -47 45 -13 25 -15 25 -100 19 -73 -5
-99 -2 -158 16 -38 11 -78 21 -87 21 -9 0 -29 12 -43 28 -89 92 -159 70 -227
-71 -25 -51 -43 -77 -54 -77 -9 0 -34 -9 -55 -20 -22 -10 -66 -22 -98 -26 -50
-6 -61 -11 -71 -31 -10 -22 -12 -22 -21 -6 -5 9 -11 68 -12 130 -2 62 -5 117
-7 121 -12 19 -11 95 1 99 6 3 12 -2 12 -11 0 -9 5 -16 11 -16 8 0 10 36 6
128 -3 70 -1 151 4 179 8 41 6 63 -6 98 -8 25 -15 74 -15 110 0 94 -25 144
-73 145 -18 0 -18 -10 -13 -167z"/>
<path d="M6960 3944 c0 -15 35 -28 50 -19 19 11 10 23 -20 27 -20 3 -30 0 -30
-8z"/>
<path d="M6803 3942 c-18 -2 -33 -6 -33 -10 0 -12 68 -62 85 -62 27 0 30 30 4
54 -17 15 -34 21 -56 18z"/>
<path d="M6460 3803 c-22 -15 -22 -15 19 -36 22 -11 39 -25 38 -30 -3 -14 16
-18 33 -7 13 9 11 14 -12 33 -16 13 -28 28 -28 34 0 19 -27 22 -50 6z"/>
<path d="M6927 3773 c-4 -3 -7 -23 -7 -43 0 -36 2 -38 38 -43 41 -6 116 4 113
16 0 4 -1 12 -1 17 0 6 -5 10 -11 10 -6 0 -25 11 -43 25 -31 24 -75 33 -89 18z"/>
<path d="M2000 3723 c-18 -21 -15 -53 4 -53 15 0 39 47 31 61 -9 13 -19 11
-35 -8z"/>
<path d="M7990 3719 c0 -11 25 -22 39 -17 6 1 -1 8 -14 15 -14 6 -25 7 -25 2z"/>
<path d="M2187 3675 c-20 -43 -21 -45 -4 -45 20 0 49 36 45 56 -6 30 -24 26
-41 -11z"/>
<path d="M8055 3593 c-26 -6 -55 -32 -52 -46 1 -6 -8 -16 -20 -22 -23 -10 -31
-41 -13 -47 6 -2 1 -22 -13 -49 -22 -44 -22 -46 -3 -41 12 3 17 1 13 -5 -4 -6
-2 -25 4 -43 10 -27 15 -31 36 -25 17 4 23 2 18 -6 -9 -14 53 -2 73 13 14 12
17 78 3 78 -5 0 -8 16 -7 35 2 19 -1 35 -5 35 -5 0 -9 16 -9 35 0 19 5 35 11
35 5 0 8 4 5 9 -4 5 -1 11 6 13 15 5 3 38 -14 37 -7 -1 -22 -4 -33 -6z"/>
<path d="M7111 3556 c-8 -10 -9 -16 -1 -21 5 -3 13 1 16 10 9 22 -1 29 -15 11z"/>
<path d="M7420 3490 c0 -11 5 -20 10 -20 6 0 10 9 10 20 0 11 -4 20 -10 20 -5
0 -10 -9 -10 -20z"/>
<path d="M7835 3480 c3 -5 8 -10 11 -10 2 0 4 5 4 10 0 6 -5 10 -11 10 -5 0
-7 -4 -4 -10z"/>
<path d="M6954 3413 c-5 -16 -3 -28 4 -31 6 -2 8 -10 5 -18 -6 -17 32 -20 43
-3 7 11 -25 79 -38 79 -4 0 -11 -12 -14 -27z"/>
<path d="M510 3379 c0 -5 5 -7 10 -4 6 3 10 8 10 11 0 2 -4 4 -10 4 -5 0 -10
-5 -10 -11z"/>
<path d="M7805 3371 c-3 -5 2 -17 11 -26 14 -13 19 -14 25 -3 14 22 10 38 -10
38 -11 0 -22 -4 -26 -9z"/>
<path d="M8044 3237 c-5 -7 -13 -20 -17 -29 -3 -10 -12 -18 -19 -19 -31 -1
-71 -8 -75 -13 -3 -2 -6 -16 -7 -30 0 -14 -6 -28 -12 -30 -16 -6 -5 -56 11
-56 8 0 21 7 30 16 8 9 22 14 29 11 7 -3 18 -1 24 5 6 6 12 6 17 -1 4 -8 11
-7 21 3 16 17 19 46 4 46 -5 0 -10 8 -10 17 0 13 3 14 12 5 8 -8 15 -9 25 -1
9 8 13 8 13 0 0 -6 5 -11 10 -11 18 0 11 66 -8 83 -22 20 -33 21 -48 4z"/>
<path d="M7460 3200 c0 -5 5 -10 10 -10 6 0 10 5 10 10 0 6 -4 10 -10 10 -5 0
-10 -4 -10 -10z"/>
<path d="M7615 3016 c-12 -13 -27 -25 -35 -28 -13 -5 -13 -8 1 -23 16 -16 17
-16 24 5 6 20 7 21 20 3 12 -15 14 -16 19 -3 3 8 3 27 -2 42 l-7 27 -20 -23z"/>
<path d="M7855 3020 c-3 -5 -1 -10 4 -10 6 0 11 5 11 10 0 6 -2 10 -4 10 -3 0
-8 -4 -11 -10z"/>
<path d="M8095 3001 c-3 -5 -1 -12 5 -16 5 -3 10 1 10 9 0 18 -6 21 -15 7z"/>
<path d="M8035 2957 c-11 -9 -14 -16 -7 -21 15 -9 42 4 42 20 0 18 -11 18 -35
1z"/>
<path d="M7836 2909 c3 -5 -2 -9 -10 -9 -21 0 -21 -39 -1 -47 9 -3 24 2 34 12
27 24 75 17 79 -12 2 -13 -1 -23 -7 -23 -11 0 -27 -68 -18 -77 3 -3 14 2 23
12 13 12 19 13 24 4 6 -8 11 -5 19 10 7 12 16 19 20 17 11 -7 53 23 46 33 -2
5 -18 11 -35 14 -17 4 -29 10 -28 14 1 5 -9 20 -22 34 -21 21 -34 26 -77 26
-29 1 -50 -3 -47 -8z"/>
<path d="M7747 2824 c-4 -4 -7 -11 -7 -15 0 -10 24 -5 28 6 4 12 -12 18 -21 9z"/>
<path d="M8055 2811 c-9 -15 24 -46 36 -34 6 6 3 16 -10 27 -12 11 -21 14 -26
7z"/>
<path d="M8060 2610 c-8 -5 -12 -11 -9 -14 2 -3 11 -1 19 4 8 5 12 11 9 14 -2
3 -11 1 -19 -4z"/>
<path d="M8097 2280 c-4 -16 -2 -40 3 -52 7 -18 9 -12 9 30 1 58 -4 67 -12 22z"/>
<path d="M3415 2049 c-33 -11 -67 -22 -75 -26 -8 -3 -19 -7 -25 -9 -83 -21
-131 -34 -215 -58 -30 -9 -64 -18 -75 -21 -11 -2 -29 -9 -40 -14 -29 -15 -300
-96 -367 -111 -32 -7 -58 -16 -58 -20 0 -4 -23 -10 -51 -13 -29 -4 -59 -13
-69 -22 -9 -8 -24 -15 -33 -15 -17 0 -168 -45 -202 -60 -11 -5 -54 -18 -95
-30 -100 -28 -157 -46 -205 -64 -22 -8 -49 -15 -61 -16 -11 0 -24 -4 -30 -9
-5 -4 -37 -14 -71 -21 -35 -7 -63 -17 -63 -21 0 -5 -8 -9 -17 -9 -10 -1 -36
-8 -58 -16 -22 -8 -89 -28 -150 -44 -60 -15 -123 -33 -139 -39 -16 -7 -36 -9
-45 -6 -11 3 -23 -8 -39 -35 -16 -28 -19 -40 -10 -41 24 -2 53 3 63 11 6 4 30
14 55 21 25 7 50 16 55 20 6 3 26 10 45 14 19 4 48 14 65 21 16 7 77 27 135
44 58 17 113 36 123 41 10 5 37 14 60 19 79 16 162 41 204 61 24 10 52 19 64
19 11 0 29 5 40 11 11 6 46 17 77 25 71 18 190 53 217 64 36 14 189 60 223 66
17 4 32 10 32 14 0 4 16 11 35 14 19 4 53 15 77 26 24 10 61 22 83 26 22 4 49
13 60 20 11 7 38 16 60 20 22 3 45 11 52 16 7 5 17 7 23 3 5 -3 10 -2 10 3 0
5 16 12 34 15 19 3 50 12 68 20 51 23 88 34 148 48 103 22 191 52 187 63 -6
17 -37 16 -102 -5z"/>
<path d="M745 1978 c-44 -16 -55 -27 -55 -59 0 -42 27 -53 107 -40 36 5 73 17
82 26 10 8 26 15 37 15 17 0 17 1 -3 15 -12 9 -26 14 -30 13 -4 -1 -19 5 -33
14 -35 23 -70 29 -105 16z"/>
<path d="M3757 1745 c3 -27 10 -58 14 -67 5 -9 9 -37 9 -62 0 -25 4 -47 9 -50
29 -18 63 38 36 58 -7 6 -23 40 -35 76 -30 91 -41 105 -33 45z"/>
<path d="M7903 1458 c-23 -26 -55 -89 -49 -96 3 -2 11 10 20 26 8 16 27 44 42
61 29 35 18 43 -13 9z"/>
<path d="M7667 1423 c-6 -33 2 -51 14 -32 11 18 11 59 0 59 -5 0 -11 -12 -14
-27z"/>
<path d="M5265 1070 c3 -5 11 -10 16 -10 6 0 7 5 4 10 -3 6 -11 10 -16 10 -6
0 -7 -4 -4 -10z"/>
<path d="M4425 912 c-11 -2 -32 -13 -47 -23 -14 -11 -31 -19 -37 -19 -17 0
-105 -50 -118 -67 -14 -19 -17 -53 -5 -53 4 0 37 -27 72 -61 44 -41 79 -64
108 -72 23 -6 42 -15 42 -19 0 -4 12 -8 26 -8 14 0 23 -4 19 -10 -10 -17 194
-12 240 6 22 8 49 18 60 21 30 10 61 42 49 52 -5 5 -39 18 -75 30 -73 24 -95
44 -127 112 -24 50 -58 80 -113 98 -47 15 -70 19 -94 13z"/>
</g>
</svg>
